# xmcd
#
# Track frame offsets:
#	150
#	13645
#	28293
#	47868
#	65807
#	83575
#	98737
#	115840
#	133092
#	151223
#	170922
#	190300
#	208570
#	224134
#	240607
#	257977
#	272517
#	289290
#	307569
#
# Disc length: 4278 seconds
# Revision: 0
# Processed by: cddbd v1.5.2PL0 Copyright (c) Steve Scherf et al.
# Submitted via: dBpowerAMP V12.0
#
DISCID=1c10b413
DTITLE=Son Volt - Trace (Expanded)
DYEAR=2014
DGENRE=Alt Country
TTITLE0=Windfall
TTITLE1=Live Free
TTITLE2=Tear Stained Eye
TTITLE3=Route
TTITLE4=Ten Second News
TTITLE5=Drown
TTITLE6=Loose String
TTITLE7=Out Of The Picture
TTITLE8=Catching On
TTITLE9=Too Early
TTITLE10=Mystifies Me
TTITLE11=Route (Acoustic Demo)
TTITLE12=Drown (Demo)
TTITLE13=Out Of The Picture (Demo)
TTITLE14=Loose String (Demo)
TTITLE15=Live Free (Demo)
TTITLE16=Too Early (Demo)
TTITLE17=Catching On (Demo)
TTITLE18=Windfall (Demo)
EXTD=
EXTT0=
EXTT1=
EXTT2=
EXTT3=
EXTT4=
EXTT5=
EXTT6=
EXTT7=
EXTT8=
EXTT9=
EXTT10=
EXTT11=
EXTT12=
EXTT13=
EXTT14=
EXTT15=
EXTT16=
EXTT17=
EXTT18=
PLAYORDER=
